HIERARCHY
ROOT hip
{
	OFFSET 0.000000 0.000000 0.000000 
	CHANNELS 6 Xposition Yposition Zposition Xrotation Zrotation Yrotation
	JOINT abdomen
	{
		OFFSET 0.000000 3.402643 0.000000 
		CHANNELS 3 Xrotation Zrotation Yrotation
		JOINT chest
		{
			OFFSET 0.000000 8.438565 -0.680529 
			CHANNELS 3 Xrotation Zrotation Yrotation
			JOINT neck
			{
				OFFSET 0.000000 10.207942 -0.272212 
				CHANNELS 3 Xrotation Zrotation Yrotation
				JOINT head
				{
					OFFSET 0.000000 3.130431 0.000000 
					CHANNELS 3 Xrotation Zrotation Yrotation
					End Site
					{
						OFFSET 0.000000 3.130435 0.000000 
					}
				}
			}
			JOINT lCollar
			{
				OFFSET 3.470700 6.669187 -0.816635 
				CHANNELS 3 Yrotation Zrotation Xrotation
				JOINT lShldr
				{
					OFFSET 3.198488 0.000000 0.000000 
					CHANNELS 3 Zrotation Yrotation Xrotation
					JOINT lForeArm
					{
						OFFSET 10.139888 0.000000 0.000000 
						CHANNELS 3 Yrotation Zrotation Xrotation
						JOINT lHand
						{
							OFFSET 8.370511 0.000000 0.000000 
							CHANNELS 3 Zrotation Yrotation Xrotation
							End Site
							{
								OFFSET 4.083176 0.000000 0.000000 
							}
						}
					}
				}
			}
			JOINT rCollar
			{
				OFFSET -3.470700 6.669187 -0.816635 
				CHANNELS 3 Yrotation Zrotation Xrotation
				JOINT rShldr
				{
					OFFSET -3.198488 0.000000 0.000000 
					CHANNELS 3 Zrotation Yrotation Xrotation
					JOINT rForeArm
					{
						OFFSET -10.139888 0.000000 0.000000 
						CHANNELS 3 Yrotation Zrotation Xrotation
						JOINT rHand
						{
							OFFSET -8.370511 0.000000 0.000000 
							CHANNELS 3 Zrotation Yrotation Xrotation
							End Site
							{
								OFFSET -4.083176 0.000000 0.000000 
							}
						}
					}
				}
			}
		}
	}
	JOINT lThigh
	{
		OFFSET 5.308129 -1.633274 1.361059 
		CHANNELS 3 Xrotation Zrotation Yrotation
		JOINT lShin
		{
			OFFSET -2.041588 -20.007561 0.000000 
			CHANNELS 3 Xrotation Zrotation Yrotation
			JOINT lFoot
			{
				OFFSET 0.000000 -19.190928 -1.224953 
				CHANNELS 3 Xrotation Yrotation Zrotation
				End Site
				{
					OFFSET 0.000000 -2.449906 4.627600 
				}
			}
		}
	}
	JOINT rThigh
	{
		OFFSET -5.308129 -1.633274 1.361059 
		CHANNELS 3 Xrotation Zrotation Yrotation
		JOINT rShin
		{
			OFFSET 2.041588 -20.007561 0.000000 
			CHANNELS 3 Xrotation Zrotation Yrotation
			JOINT rFoot
			{
				OFFSET 0.000000 -19.190928 -1.224953 
				CHANNELS 3 Xrotation Yrotation Zrotation
				End Site
				{
					OFFSET 0.000000 -2.449906 4.627600 
				}
			}
		}
	}
}
MOTION
Frames: 10
Frame Time: 0.033333
2.278394 44.636604 34.800835 -8.166855 8.945886 -46.540726 0.000000 0.000000 0.000000 28.377735 12.373299 21.771027 11.898450 6.812301 20.237640 -7.544523 -13.278374 1.212850 15.691980 -2.596211 19.237167 -51.161255 -28.544968 43.510227 -76.371231 4.573527 -1.613111 20.420559 10.834015 -2.263670 37.086449 24.988474 11.176561 -68.727051 81.288910 -65.366554 30.819347 2.448790 17.260502 49.776203 12.233283 4.000031 -32.007126 -3.115108 4.989425 46.145733 -12.056812 -6.738783 -13.908307 -0.801593 6.466322 21.168322 -26.716730 -26.465517 18.635941 -3.426912 -20.787247 -19.369003 -6.018035 34.262985 
1.649711 45.192421 34.558434 -6.874816 9.079614 -42.888386 0.000000 0.000000 0.000000 27.403082 11.863757 21.749010 10.464164 6.366531 19.677599 -7.112402 -12.216463 0.429011 16.097673 -4.172008 18.600042 -50.310837 -28.279110 44.483555 -78.406326 5.811686 0.397230 18.934216 10.427894 -2.421016 37.122570 23.156054 11.506587 58.142670 96.696930 55.086220 31.459694 1.710686 19.394905 48.363678 10.376584 2.902134 -30.865242 -3.261235 4.009068 43.088421 -11.558389 -7.199983 -12.395554 -0.689381 6.304345 23.297234 -23.065733 -26.486458 13.791359 -2.134815 -20.078833 -19.933111 -5.545658 30.698599 
1.006238 45.764664 34.311623 -6.451506 8.728454 -39.479095 0.000000 0.000000 0.000000 26.708626 11.032219 21.390804 9.715610 6.329928 18.702326 -7.189333 -12.197163 0.239401 15.989338 -5.196743 18.461815 -50.056091 -27.722128 45.405037 -79.457291 6.674336 2.817142 18.704060 9.820073 -2.528472 36.468609 20.235498 12.213940 26.891384 97.993546 19.891306 34.221092 0.321724 19.272669 47.129414 9.120022 2.151500 -28.674677 -3.671880 2.762701 39.643803 -10.919610 -7.461147 -10.772515 -0.538132 5.822683 26.385229 -19.902584 -26.956400 7.898421 -0.866233 -18.734535 -19.547729 -4.744052 27.009678 
0.417102 46.343987 34.000416 -5.816027 7.979177 -37.047688 0.000000 0.000000 0.000000 25.993011 10.349583 21.082144 9.121769 5.955278 18.286684 -6.779372 -11.728516 0.009562 16.077368 -6.891155 18.199326 -48.593624 -26.356155 45.946644 -80.153191 7.149304 3.548913 18.219387 9.486709 -2.605707 35.713909 18.976147 12.528906 4.838943 98.705910 -3.426561 37.896439 -0.946813 16.750458 46.247997 8.066481 1.572991 -26.495298 -3.086076 2.180639 36.060413 -10.415248 -7.450731 -9.050016 -0.423878 5.344719 27.166420 -17.753668 -26.581276 4.699915 0.110269 -18.477385 -18.139896 -3.949991 24.508799 
-0.110193 46.857101 33.690372 -5.427430 6.590814 -34.783226 0.000000 0.000000 0.000000 25.478512 10.087618 20.466948 8.598591 5.645104 17.824179 -6.518827 -10.917915 -0.179998 15.885246 -8.024463 18.015688 -47.441875 -24.827806 45.833893 -79.993279 6.910115 4.556803 18.337610 10.025777 -2.515480 35.138695 19.864050 12.395448 -19.181435 97.459610 -25.474777 43.819897 -2.351266 13.420036 44.577805 8.074441 1.386237 -24.135645 -2.246060 1.498990 32.851597 -9.636958 -7.257723 -7.461658 -0.295383 4.609344 25.205313 -17.400196 -25.632721 7.819164 0.932328 -18.009880 -17.367125 -3.661225 23.515862 
-0.626126 47.264709 33.359360 -5.663561 5.093358 -32.535976 0.000000 0.000000 0.000000 24.998564 9.708343 19.598778 8.236895 5.697284 17.040377 -6.247050 -10.537102 -0.070778 15.216883 -8.793104 18.027775 -46.731941 -23.106592 44.780838 -78.743820 5.839339 5.267931 18.655052 9.962716 -2.506614 33.917622 22.576689 12.302164 -58.163902 96.639221 -59.511330 50.747150 -4.603918 10.888508 42.951248 6.279480 0.455141 -21.615698 -1.601487 0.853927 30.027143 -8.739767 -6.843253 -5.945592 -0.200642 3.843060 23.436739 -17.558836 -24.819456 11.183848 1.634850 -16.058805 -17.306089 -3.455457 22.390966 
-1.127680 47.557583 32.962414 -5.843853 3.623076 -31.084383 0.000000 0.000000 0.000000 24.428677 9.182867 18.914309 7.727233 5.495505 16.582994 -5.815157 -9.980467 -0.030546 14.760930 -9.774678 17.961466 -46.097038 -21.086178 42.874588 -76.832016 4.137053 5.645317 20.210573 10.646477 -2.300269 32.545082 24.000536 12.453985 87.475075 80.801842 90.306122 57.095921 -7.122082 9.624773 40.837345 4.281994 -0.515677 -19.706823 -0.498443 0.556943 28.113863 -7.808614 -7.224239 -4.902548 -0.156190 2.948110 20.008291 -18.554821 -22.668127 17.094614 1.593857 -9.984691 -18.382233 -3.379884 20.644753 
-1.601998 47.743099 32.503826 -6.227357 2.183947 -29.926044 0.000000 0.000000 0.000000 23.711971 8.735143 18.049778 7.836693 5.135128 16.396235 -6.613055 -9.189314 0.316287 13.991420 -10.896075 17.795952 -45.190773 -18.099865 39.739498 -74.435501 1.909906 6.823260 18.973026 10.044502 -2.469219 31.186916 24.992521 12.450155 69.487007 75.931389 76.098480 61.979492 -8.908385 8.644197 37.270561 2.701560 -1.354728 -18.147797 0.731863 0.454454 26.924730 -6.904552 -8.923755 -4.131065 -0.094518 2.003926 16.286180 -19.569155 -20.315685 23.330992 1.244864 -2.763202 -19.322725 -3.150395 18.235046 
-2.063075 47.880566 31.985422 -6.745900 1.010180 -28.764519 0.000000 0.000000 0.000000 23.142286 8.201986 17.064899 7.182518 4.684851 16.012363 -6.571398 -8.193084 0.472316 13.155435 -11.410525 17.792492 -45.355984 -15.837281 36.827370 -71.441177 -0.799724 6.992801 20.991695 11.596841 -2.090013 29.946548 24.827141 12.804115 61.525593 71.127586 70.053429 65.088196 -9.674430 9.489116 32.903030 1.408335 -2.031546 -16.767431 1.883029 0.451471 25.722631 -6.197946 -10.731590 -3.308294 -0.041565 1.091668 13.046485 -20.273731 -18.744963 28.597809 1.243925 2.459681 -19.052458 -2.684236 16.047567 
-2.527217 47.969307 31.396166 -7.665194 -0.095259 -27.529356 0.000000 0.000000 0.000000 22.574640 7.645161 15.996017 6.999983 4.294334 15.376409 -6.588355 -7.284869 0.511143 12.342113 -12.201328 17.744158 -45.005878 -13.124476 34.043579 -68.533287 -3.358978 7.480804 22.220430 13.387406 -1.661532 28.398321 24.994007 13.004446 54.518234 65.937843 66.269142 66.564018 -9.696964 10.258370 28.777998 2.911191 -1.786799 -15.232049 2.889657 0.499280 24.478447 -5.631554 -12.222435 -2.313614 0.010900 0.141213 10.013466 -20.765383 -17.013594 34.097912 1.187327 8.195130 -18.368267 -2.070605 12.955667 
